{
	"patcher" : 	{
		"fileversion" : 1,
		"appversion" : 		{
			"major" : 7,
			"minor" : 3,
			"revision" : 4,
			"architecture" : "x64",
			"modernui" : 1
		}
,
		"rect" : [ 189.0, 430.0, 497.0, 207.0 ],
		"bglocked" : 0,
		"openinpresentation" : 1,
		"default_fontsize" : 12.0,
		"default_fontface" : 0,
		"default_fontname" : "Arial",
		"gridonopen" : 1,
		"gridsize" : [ 15.0, 15.0 ],
		"gridsnaponopen" : 1,
		"objectsnaponopen" : 1,
		"statusbarvisible" : 2,
		"toolbarvisible" : 1,
		"lefttoolbarpinned" : 0,
		"toptoolbarpinned" : 0,
		"righttoolbarpinned" : 0,
		"bottomtoolbarpinned" : 0,
		"toolbars_unpinned_last_save" : 0,
		"tallnewobj" : 0,
		"boxanimatetime" : 200,
		"enablehscroll" : 1,
		"enablevscroll" : 1,
		"devicewidth" : 0.0,
		"description" : "",
		"digest" : "",
		"tags" : "",
		"style" : "",
		"subpatcher_template" : "",
		"boxes" : [ 			{
				"box" : 				{
					"fontsize" : 8.0,
					"id" : "obj-80",
					"maxclass" : "comment",
					"numinlets" : 1,
					"numoutlets" : 0,
					"patching_rect" : [ 906.0, 245.0, 57.0, 15.0 ],
					"presentation" : 1,
					"presentation_rect" : [ 427.0, 183.0, 57.0, 15.0 ],
					"style" : "",
					"varname" : "value[15]"
				}

			}
, 			{
				"box" : 				{
					"fontsize" : 8.0,
					"id" : "obj-79",
					"maxclass" : "comment",
					"numinlets" : 1,
					"numoutlets" : 0,
					"patching_rect" : [ 847.0, 245.0, 57.0, 15.0 ],
					"presentation" : 1,
					"presentation_rect" : [ 368.0, 183.0, 57.0, 15.0 ],
					"style" : "",
					"varname" : "value[14]"
				}

			}
, 			{
				"box" : 				{
					"fontsize" : 8.0,
					"id" : "obj-78",
					"maxclass" : "comment",
					"numinlets" : 1,
					"numoutlets" : 0,
					"patching_rect" : [ 788.0, 245.0, 57.0, 15.0 ],
					"presentation" : 1,
					"presentation_rect" : [ 309.0, 183.0, 57.0, 15.0 ],
					"style" : "",
					"varname" : "value[13]"
				}

			}
, 			{
				"box" : 				{
					"fontsize" : 8.0,
					"id" : "obj-77",
					"maxclass" : "comment",
					"numinlets" : 1,
					"numoutlets" : 0,
					"patching_rect" : [ 729.0, 245.0, 57.0, 15.0 ],
					"presentation" : 1,
					"presentation_rect" : [ 250.0, 183.0, 57.0, 15.0 ],
					"style" : "",
					"varname" : "value[12]"
				}

			}
, 			{
				"box" : 				{
					"fontsize" : 8.0,
					"id" : "obj-76",
					"maxclass" : "comment",
					"numinlets" : 1,
					"numoutlets" : 0,
					"patching_rect" : [ 670.0, 245.0, 57.0, 15.0 ],
					"presentation" : 1,
					"presentation_rect" : [ 191.0, 183.0, 57.0, 15.0 ],
					"style" : "",
					"varname" : "value[11]"
				}

			}
, 			{
				"box" : 				{
					"fontsize" : 8.0,
					"id" : "obj-75",
					"maxclass" : "comment",
					"numinlets" : 1,
					"numoutlets" : 0,
					"patching_rect" : [ 611.0, 245.0, 57.0, 15.0 ],
					"presentation" : 1,
					"presentation_rect" : [ 132.0, 183.0, 57.0, 15.0 ],
					"style" : "",
					"varname" : "value[10]"
				}

			}
, 			{
				"box" : 				{
					"fontsize" : 8.0,
					"id" : "obj-74",
					"maxclass" : "comment",
					"numinlets" : 1,
					"numoutlets" : 0,
					"patching_rect" : [ 552.0, 245.0, 57.0, 15.0 ],
					"presentation" : 1,
					"presentation_rect" : [ 73.0, 183.0, 57.0, 15.0 ],
					"style" : "",
					"varname" : "value[9]"
				}

			}
, 			{
				"box" : 				{
					"fontsize" : 8.0,
					"id" : "obj-73",
					"maxclass" : "comment",
					"numinlets" : 1,
					"numoutlets" : 0,
					"patching_rect" : [ 492.0, 245.0, 57.0, 15.0 ],
					"presentation" : 1,
					"presentation_rect" : [ 14.0, 183.0, 57.0, 15.0 ],
					"style" : "",
					"varname" : "value[8]"
				}

			}
, 			{
				"box" : 				{
					"fontsize" : 8.0,
					"id" : "obj-72",
					"maxclass" : "comment",
					"numinlets" : 1,
					"numoutlets" : 0,
					"patching_rect" : [ 906.0, 228.0, 57.0, 15.0 ],
					"presentation" : 1,
					"presentation_rect" : [ 427.0, 166.0, 57.0, 15.0 ],
					"style" : "",
					"varname" : "name[15]"
				}

			}
, 			{
				"box" : 				{
					"fontsize" : 8.0,
					"id" : "obj-71",
					"maxclass" : "comment",
					"numinlets" : 1,
					"numoutlets" : 0,
					"patching_rect" : [ 847.0, 228.0, 57.0, 15.0 ],
					"presentation" : 1,
					"presentation_rect" : [ 368.0, 166.0, 57.0, 15.0 ],
					"style" : "",
					"varname" : "name[14]"
				}

			}
, 			{
				"box" : 				{
					"fontsize" : 8.0,
					"id" : "obj-70",
					"maxclass" : "comment",
					"numinlets" : 1,
					"numoutlets" : 0,
					"patching_rect" : [ 788.0, 228.0, 57.0, 15.0 ],
					"presentation" : 1,
					"presentation_rect" : [ 309.0, 166.0, 57.0, 15.0 ],
					"style" : "",
					"varname" : "name[13]"
				}

			}
, 			{
				"box" : 				{
					"fontsize" : 8.0,
					"id" : "obj-69",
					"maxclass" : "comment",
					"numinlets" : 1,
					"numoutlets" : 0,
					"patching_rect" : [ 729.0, 228.0, 57.0, 15.0 ],
					"presentation" : 1,
					"presentation_rect" : [ 250.0, 166.0, 57.0, 15.0 ],
					"style" : "",
					"varname" : "name[12]"
				}

			}
, 			{
				"box" : 				{
					"fontsize" : 8.0,
					"id" : "obj-68",
					"maxclass" : "comment",
					"numinlets" : 1,
					"numoutlets" : 0,
					"patching_rect" : [ 670.0, 228.0, 57.0, 15.0 ],
					"presentation" : 1,
					"presentation_rect" : [ 191.0, 166.0, 57.0, 15.0 ],
					"style" : "",
					"varname" : "name[11]"
				}

			}
, 			{
				"box" : 				{
					"fontsize" : 8.0,
					"id" : "obj-67",
					"maxclass" : "comment",
					"numinlets" : 1,
					"numoutlets" : 0,
					"patching_rect" : [ 611.0, 228.0, 57.0, 15.0 ],
					"presentation" : 1,
					"presentation_rect" : [ 132.0, 166.0, 57.0, 15.0 ],
					"style" : "",
					"varname" : "name[10]"
				}

			}
, 			{
				"box" : 				{
					"fontsize" : 8.0,
					"id" : "obj-66",
					"maxclass" : "comment",
					"numinlets" : 1,
					"numoutlets" : 0,
					"patching_rect" : [ 552.0, 228.0, 57.0, 15.0 ],
					"presentation" : 1,
					"presentation_rect" : [ 73.0, 166.0, 57.0, 15.0 ],
					"style" : "",
					"varname" : "name[9]"
				}

			}
, 			{
				"box" : 				{
					"fontsize" : 8.0,
					"id" : "obj-65",
					"maxclass" : "comment",
					"numinlets" : 1,
					"numoutlets" : 0,
					"patching_rect" : [ 492.0, 228.0, 57.0, 15.0 ],
					"presentation" : 1,
					"presentation_rect" : [ 14.0, 166.0, 57.0, 15.0 ],
					"style" : "",
					"varname" : "name[8]"
				}

			}
, 			{
				"box" : 				{
					"id" : "obj-64",
					"maxclass" : "dial",
					"numinlets" : 1,
					"numoutlets" : 1,
					"outlettype" : [ "float" ],
					"parameter_enable" : 1,
					"patching_rect" : [ 906.0, 66.0, 57.0, 57.0 ],
					"presentation" : 1,
					"presentation_rect" : [ 427.0, 107.0, 57.0, 57.0 ],
					"saved_attribute_attributes" : 					{
						"valueof" : 						{
							"parameter_longname" : "paramDial[11]",
							"parameter_shortname" : "paramDial[7]",
							"parameter_type" : 3,
							"parameter_invisible" : 1
						}

					}
,
					"style" : "",
					"varname" : "paramDial[15]"
				}

			}
, 			{
				"box" : 				{
					"id" : "obj-63",
					"maxclass" : "dial",
					"numinlets" : 1,
					"numoutlets" : 1,
					"outlettype" : [ "float" ],
					"parameter_enable" : 1,
					"patching_rect" : [ 847.0, 66.0, 57.0, 57.0 ],
					"presentation" : 1,
					"presentation_rect" : [ 368.0, 107.0, 57.0, 57.0 ],
					"saved_attribute_attributes" : 					{
						"valueof" : 						{
							"parameter_longname" : "paramDial[18]",
							"parameter_shortname" : "paramDial[6]",
							"parameter_type" : 3,
							"parameter_invisible" : 1
						}

					}
,
					"style" : "",
					"varname" : "paramDial[14]"
				}

			}
, 			{
				"box" : 				{
					"id" : "obj-62",
					"maxclass" : "dial",
					"numinlets" : 1,
					"numoutlets" : 1,
					"outlettype" : [ "float" ],
					"parameter_enable" : 1,
					"patching_rect" : [ 788.0, 66.0, 57.0, 57.0 ],
					"presentation" : 1,
					"presentation_rect" : [ 309.0, 107.0, 57.0, 57.0 ],
					"saved_attribute_attributes" : 					{
						"valueof" : 						{
							"parameter_longname" : "paramDial[17]",
							"parameter_shortname" : "paramDial[5]",
							"parameter_type" : 3,
							"parameter_invisible" : 1
						}

					}
,
					"style" : "",
					"varname" : "paramDial[13]"
				}

			}
, 			{
				"box" : 				{
					"id" : "obj-61",
					"maxclass" : "dial",
					"numinlets" : 1,
					"numoutlets" : 1,
					"outlettype" : [ "float" ],
					"parameter_enable" : 1,
					"patching_rect" : [ 729.0, 66.0, 57.0, 57.0 ],
					"presentation" : 1,
					"presentation_rect" : [ 250.0, 107.0, 57.0, 57.0 ],
					"saved_attribute_attributes" : 					{
						"valueof" : 						{
							"parameter_longname" : "paramDial[10]",
							"parameter_shortname" : "paramDial[4]",
							"parameter_type" : 3,
							"parameter_invisible" : 1
						}

					}
,
					"style" : "",
					"varname" : "paramDial[12]"
				}

			}
, 			{
				"box" : 				{
					"id" : "obj-60",
					"maxclass" : "dial",
					"numinlets" : 1,
					"numoutlets" : 1,
					"outlettype" : [ "float" ],
					"parameter_enable" : 1,
					"patching_rect" : [ 670.0, 66.0, 57.0, 57.0 ],
					"presentation" : 1,
					"presentation_rect" : [ 191.0, 107.0, 57.0, 57.0 ],
					"saved_attribute_attributes" : 					{
						"valueof" : 						{
							"parameter_longname" : "paramDial[16]",
							"parameter_shortname" : "paramDial[3]",
							"parameter_type" : 3,
							"parameter_invisible" : 1
						}

					}
,
					"style" : "",
					"varname" : "paramDial[11]"
				}

			}
, 			{
				"box" : 				{
					"id" : "obj-59",
					"maxclass" : "dial",
					"numinlets" : 1,
					"numoutlets" : 1,
					"outlettype" : [ "float" ],
					"parameter_enable" : 1,
					"patching_rect" : [ 611.0, 66.0, 57.0, 57.0 ],
					"presentation" : 1,
					"presentation_rect" : [ 132.0, 107.0, 57.0, 57.0 ],
					"saved_attribute_attributes" : 					{
						"valueof" : 						{
							"parameter_longname" : "paramDial[15]",
							"parameter_shortname" : "paramDial[2]",
							"parameter_type" : 3,
							"parameter_invisible" : 1
						}

					}
,
					"style" : "",
					"varname" : "paramDial[10]"
				}

			}
, 			{
				"box" : 				{
					"id" : "obj-58",
					"maxclass" : "dial",
					"numinlets" : 1,
					"numoutlets" : 1,
					"outlettype" : [ "float" ],
					"parameter_enable" : 1,
					"patching_rect" : [ 552.0, 66.0, 57.0, 57.0 ],
					"presentation" : 1,
					"presentation_rect" : [ 73.0, 107.0, 57.0, 57.0 ],
					"saved_attribute_attributes" : 					{
						"valueof" : 						{
							"parameter_longname" : "paramDial[14]",
							"parameter_shortname" : "paramDial[1]",
							"parameter_type" : 3,
							"parameter_invisible" : 1
						}

					}
,
					"style" : "",
					"varname" : "paramDial[9]"
				}

			}
, 			{
				"box" : 				{
					"id" : "obj-57",
					"maxclass" : "dial",
					"numinlets" : 1,
					"numoutlets" : 1,
					"outlettype" : [ "float" ],
					"parameter_enable" : 1,
					"patching_rect" : [ 493.0, 66.0, 57.0, 57.0 ],
					"presentation" : 1,
					"presentation_rect" : [ 14.0, 107.0, 57.0, 57.0 ],
					"saved_attribute_attributes" : 					{
						"valueof" : 						{
							"parameter_longname" : "paramDial[9]",
							"parameter_shortname" : "paramDial[0]",
							"parameter_type" : 3,
							"parameter_invisible" : 1
						}

					}
,
					"style" : "",
					"varname" : "paramDial[8]"
				}

			}
, 			{
				"box" : 				{
					"id" : "obj-32",
					"maxclass" : "newobj",
					"numinlets" : 1,
					"numoutlets" : 2,
					"outlettype" : [ "", "" ],
					"patching_rect" : [ 36.0, 435.0, 69.0, 22.0 ],
					"save" : [ "#N", "thispatcher", ";", "#Q", "end", ";" ],
					"style" : "",
					"text" : "thispatcher",
					"varname" : "parameter_controls_thispatcher"
				}

			}
, 			{
				"box" : 				{
					"id" : "obj-125",
					"maxclass" : "newobj",
					"numinlets" : 3,
					"numoutlets" : 3,
					"outlettype" : [ "bang", "bang", "" ],
					"patching_rect" : [ 36.0, 310.0, 62.0, 22.0 ],
					"style" : "",
					"text" : "select 0 1"
				}

			}
, 			{
				"box" : 				{
					"id" : "obj-124",
					"maxclass" : "newobj",
					"numinlets" : 0,
					"numoutlets" : 1,
					"outlettype" : [ "" ],
					"patching_rect" : [ 36.0, 276.0, 96.0, 22.0 ],
					"style" : "",
					"text" : "r ---mira_enable"
				}

			}
, 			{
				"box" : 				{
					"id" : "obj-4",
					"maxclass" : "message",
					"numinlets" : 2,
					"numoutlets" : 1,
					"outlettype" : [ "" ],
					"patching_rect" : [ 36.0, 390.0, 116.0, 22.0 ],
					"style" : "",
					"text" : "script delete frame3"
				}

			}
, 			{
				"box" : 				{
					"id" : "obj-12",
					"linecount" : 2,
					"maxclass" : "message",
					"numinlets" : 2,
					"numoutlets" : 1,
					"outlettype" : [ "" ],
					"patching_rect" : [ 57.5, 348.0, 694.0, 35.0 ],
					"style" : "",
					"text" : "script newdefault frame3 mira.frame @presentation 1 @tabname Skin:Parameters @taborder 4 @draw_tab_name 0 @aspect 6 @presentation_rect 14. 7.5 473.672427 237.298782"
				}

			}
, 			{
				"box" : 				{
					"comment" : "",
					"id" : "obj-31",
					"index" : 0,
					"maxclass" : "inlet",
					"numinlets" : 0,
					"numoutlets" : 1,
					"outlettype" : [ "" ],
					"patching_rect" : [ 21.0, 15.0, 30.0, 30.0 ],
					"style" : ""
				}

			}
, 			{
				"box" : 				{
					"comment" : "",
					"id" : "obj-30",
					"index" : 0,
					"maxclass" : "outlet",
					"numinlets" : 1,
					"numoutlets" : 0,
					"patching_rect" : [ 21.0, 184.0, 30.0, 30.0 ],
					"style" : ""
				}

			}
, 			{
				"box" : 				{
					"id" : "obj-29",
					"maxclass" : "newobj",
					"numinlets" : 16,
					"numoutlets" : 1,
					"outlettype" : [ "list" ],
					"patching_rect" : [ 21.0, 141.0, 904.0, 22.0 ],
					"style" : "",
					"text" : "funnel 16"
				}

			}
, 			{
				"box" : 				{
					"fontsize" : 8.0,
					"id" : "obj-28",
					"maxclass" : "comment",
					"numinlets" : 1,
					"numoutlets" : 0,
					"patching_rect" : [ 434.0, 245.0, 57.0, 15.0 ],
					"presentation" : 1,
					"presentation_rect" : [ 427.0, 90.0, 57.0, 15.0 ],
					"style" : "",
					"varname" : "value[7]"
				}

			}
, 			{
				"box" : 				{
					"fontsize" : 8.0,
					"id" : "obj-27",
					"maxclass" : "comment",
					"numinlets" : 1,
					"numoutlets" : 0,
					"patching_rect" : [ 375.0, 245.0, 57.0, 15.0 ],
					"presentation" : 1,
					"presentation_rect" : [ 368.0, 90.0, 57.0, 15.0 ],
					"style" : "",
					"varname" : "value[6]"
				}

			}
, 			{
				"box" : 				{
					"fontsize" : 8.0,
					"id" : "obj-26",
					"maxclass" : "comment",
					"numinlets" : 1,
					"numoutlets" : 0,
					"patching_rect" : [ 316.0, 245.0, 57.0, 15.0 ],
					"presentation" : 1,
					"presentation_rect" : [ 309.0, 90.0, 57.0, 15.0 ],
					"style" : "",
					"varname" : "value[5]"
				}

			}
, 			{
				"box" : 				{
					"fontsize" : 8.0,
					"id" : "obj-25",
					"maxclass" : "comment",
					"numinlets" : 1,
					"numoutlets" : 0,
					"patching_rect" : [ 257.0, 245.0, 57.0, 15.0 ],
					"presentation" : 1,
					"presentation_rect" : [ 250.0, 90.0, 57.0, 15.0 ],
					"style" : "",
					"varname" : "value[4]"
				}

			}
, 			{
				"box" : 				{
					"fontsize" : 8.0,
					"id" : "obj-24",
					"maxclass" : "comment",
					"numinlets" : 1,
					"numoutlets" : 0,
					"patching_rect" : [ 198.0, 245.0, 57.0, 15.0 ],
					"presentation" : 1,
					"presentation_rect" : [ 191.0, 90.0, 57.0, 15.0 ],
					"style" : "",
					"varname" : "value[3]"
				}

			}
, 			{
				"box" : 				{
					"fontsize" : 8.0,
					"id" : "obj-23",
					"maxclass" : "comment",
					"numinlets" : 1,
					"numoutlets" : 0,
					"patching_rect" : [ 139.0, 245.0, 57.0, 15.0 ],
					"presentation" : 1,
					"presentation_rect" : [ 132.0, 90.0, 57.0, 15.0 ],
					"style" : "",
					"varname" : "value[2]"
				}

			}
, 			{
				"box" : 				{
					"fontsize" : 8.0,
					"id" : "obj-22",
					"maxclass" : "comment",
					"numinlets" : 1,
					"numoutlets" : 0,
					"patching_rect" : [ 80.0, 245.0, 57.0, 15.0 ],
					"presentation" : 1,
					"presentation_rect" : [ 73.0, 90.0, 57.0, 15.0 ],
					"style" : "",
					"varname" : "value[1]"
				}

			}
, 			{
				"box" : 				{
					"fontsize" : 8.0,
					"id" : "obj-21",
					"maxclass" : "comment",
					"numinlets" : 1,
					"numoutlets" : 0,
					"patching_rect" : [ 21.0, 245.0, 57.0, 15.0 ],
					"presentation" : 1,
					"presentation_rect" : [ 14.0, 90.0, 57.0, 15.0 ],
					"style" : "",
					"varname" : "value[0]"
				}

			}
, 			{
				"box" : 				{
					"fontsize" : 8.0,
					"id" : "obj-20",
					"maxclass" : "comment",
					"numinlets" : 1,
					"numoutlets" : 0,
					"patching_rect" : [ 434.0, 228.0, 57.0, 15.0 ],
					"presentation" : 1,
					"presentation_rect" : [ 427.0, 73.0, 57.0, 15.0 ],
					"style" : "",
					"varname" : "name[7]"
				}

			}
, 			{
				"box" : 				{
					"fontsize" : 8.0,
					"id" : "obj-19",
					"maxclass" : "comment",
					"numinlets" : 1,
					"numoutlets" : 0,
					"patching_rect" : [ 375.0, 228.0, 57.0, 15.0 ],
					"presentation" : 1,
					"presentation_rect" : [ 368.0, 73.0, 57.0, 15.0 ],
					"style" : "",
					"varname" : "name[6]"
				}

			}
, 			{
				"box" : 				{
					"fontsize" : 8.0,
					"id" : "obj-18",
					"maxclass" : "comment",
					"numinlets" : 1,
					"numoutlets" : 0,
					"patching_rect" : [ 316.0, 228.0, 57.0, 15.0 ],
					"presentation" : 1,
					"presentation_rect" : [ 309.0, 73.0, 57.0, 15.0 ],
					"style" : "",
					"varname" : "name[5]"
				}

			}
, 			{
				"box" : 				{
					"fontsize" : 8.0,
					"id" : "obj-17",
					"maxclass" : "comment",
					"numinlets" : 1,
					"numoutlets" : 0,
					"patching_rect" : [ 257.0, 228.0, 57.0, 15.0 ],
					"presentation" : 1,
					"presentation_rect" : [ 250.0, 73.0, 57.0, 15.0 ],
					"style" : "",
					"varname" : "name[4]"
				}

			}
, 			{
				"box" : 				{
					"fontsize" : 8.0,
					"id" : "obj-16",
					"maxclass" : "comment",
					"numinlets" : 1,
					"numoutlets" : 0,
					"patching_rect" : [ 198.0, 228.0, 57.0, 15.0 ],
					"presentation" : 1,
					"presentation_rect" : [ 191.0, 73.0, 57.0, 15.0 ],
					"style" : "",
					"varname" : "name[3]"
				}

			}
, 			{
				"box" : 				{
					"fontsize" : 8.0,
					"id" : "obj-15",
					"maxclass" : "comment",
					"numinlets" : 1,
					"numoutlets" : 0,
					"patching_rect" : [ 139.0, 228.0, 57.0, 15.0 ],
					"presentation" : 1,
					"presentation_rect" : [ 132.0, 73.0, 57.0, 15.0 ],
					"style" : "",
					"varname" : "name[2]"
				}

			}
, 			{
				"box" : 				{
					"fontsize" : 8.0,
					"id" : "obj-14",
					"maxclass" : "comment",
					"numinlets" : 1,
					"numoutlets" : 0,
					"patching_rect" : [ 80.0, 228.0, 57.0, 15.0 ],
					"presentation" : 1,
					"presentation_rect" : [ 73.0, 73.0, 57.0, 15.0 ],
					"style" : "",
					"varname" : "name[1]"
				}

			}
, 			{
				"box" : 				{
					"fontsize" : 8.0,
					"id" : "obj-13",
					"maxclass" : "comment",
					"numinlets" : 1,
					"numoutlets" : 0,
					"patching_rect" : [ 21.0, 228.0, 57.0, 15.0 ],
					"presentation" : 1,
					"presentation_rect" : [ 14.0, 73.0, 57.0, 15.0 ],
					"style" : "",
					"varname" : "name[0]"
				}

			}
, 			{
				"box" : 				{
					"id" : "obj-11",
					"maxclass" : "dial",
					"numinlets" : 1,
					"numoutlets" : 1,
					"outlettype" : [ "float" ],
					"parameter_enable" : 1,
					"patching_rect" : [ 434.0, 66.0, 57.0, 57.0 ],
					"presentation" : 1,
					"presentation_rect" : [ 427.0, 14.0, 57.0, 57.0 ],
					"saved_attribute_attributes" : 					{
						"valueof" : 						{
							"parameter_longname" : "paramDial[7]",
							"parameter_shortname" : "paramDial[7]",
							"parameter_type" : 3,
							"parameter_invisible" : 1
						}

					}
,
					"style" : "",
					"varname" : "paramDial[7]"
				}

			}
, 			{
				"box" : 				{
					"id" : "obj-10",
					"maxclass" : "dial",
					"numinlets" : 1,
					"numoutlets" : 1,
					"outlettype" : [ "float" ],
					"parameter_enable" : 1,
					"patching_rect" : [ 375.0, 66.0, 57.0, 57.0 ],
					"presentation" : 1,
					"presentation_rect" : [ 368.0, 14.0, 57.0, 57.0 ],
					"saved_attribute_attributes" : 					{
						"valueof" : 						{
							"parameter_longname" : "paramDial[6]",
							"parameter_shortname" : "paramDial[6]",
							"parameter_type" : 3,
							"parameter_invisible" : 1
						}

					}
,
					"style" : "",
					"varname" : "paramDial[6]"
				}

			}
, 			{
				"box" : 				{
					"id" : "obj-9",
					"maxclass" : "dial",
					"numinlets" : 1,
					"numoutlets" : 1,
					"outlettype" : [ "float" ],
					"parameter_enable" : 1,
					"patching_rect" : [ 316.0, 66.0, 57.0, 57.0 ],
					"presentation" : 1,
					"presentation_rect" : [ 309.0, 14.0, 57.0, 57.0 ],
					"saved_attribute_attributes" : 					{
						"valueof" : 						{
							"parameter_longname" : "paramDial[5]",
							"parameter_shortname" : "paramDial[5]",
							"parameter_type" : 3,
							"parameter_invisible" : 1
						}

					}
,
					"style" : "",
					"varname" : "paramDial[5]"
				}

			}
, 			{
				"box" : 				{
					"id" : "obj-8",
					"maxclass" : "dial",
					"numinlets" : 1,
					"numoutlets" : 1,
					"outlettype" : [ "float" ],
					"parameter_enable" : 1,
					"patching_rect" : [ 257.0, 66.0, 57.0, 57.0 ],
					"presentation" : 1,
					"presentation_rect" : [ 250.0, 14.0, 57.0, 57.0 ],
					"saved_attribute_attributes" : 					{
						"valueof" : 						{
							"parameter_longname" : "paramDial[4]",
							"parameter_shortname" : "paramDial[4]",
							"parameter_type" : 3,
							"parameter_invisible" : 1
						}

					}
,
					"style" : "",
					"varname" : "paramDial[4]"
				}

			}
, 			{
				"box" : 				{
					"id" : "obj-7",
					"maxclass" : "dial",
					"numinlets" : 1,
					"numoutlets" : 1,
					"outlettype" : [ "float" ],
					"parameter_enable" : 1,
					"patching_rect" : [ 198.0, 66.0, 57.0, 57.0 ],
					"presentation" : 1,
					"presentation_rect" : [ 191.0, 14.0, 57.0, 57.0 ],
					"saved_attribute_attributes" : 					{
						"valueof" : 						{
							"parameter_longname" : "paramDial[3]",
							"parameter_shortname" : "paramDial[3]",
							"parameter_type" : 3,
							"parameter_invisible" : 1
						}

					}
,
					"style" : "",
					"varname" : "paramDial[3]"
				}

			}
, 			{
				"box" : 				{
					"id" : "obj-6",
					"maxclass" : "dial",
					"numinlets" : 1,
					"numoutlets" : 1,
					"outlettype" : [ "float" ],
					"parameter_enable" : 1,
					"patching_rect" : [ 139.0, 66.0, 57.0, 57.0 ],
					"presentation" : 1,
					"presentation_rect" : [ 132.0, 14.0, 57.0, 57.0 ],
					"saved_attribute_attributes" : 					{
						"valueof" : 						{
							"parameter_longname" : "paramDial[2]",
							"parameter_shortname" : "paramDial[2]",
							"parameter_type" : 3,
							"parameter_invisible" : 1
						}

					}
,
					"style" : "",
					"varname" : "paramDial[2]"
				}

			}
, 			{
				"box" : 				{
					"id" : "obj-5",
					"maxclass" : "dial",
					"numinlets" : 1,
					"numoutlets" : 1,
					"outlettype" : [ "float" ],
					"parameter_enable" : 1,
					"patching_rect" : [ 80.0, 66.0, 57.0, 57.0 ],
					"presentation" : 1,
					"presentation_rect" : [ 73.0, 14.0, 57.0, 57.0 ],
					"saved_attribute_attributes" : 					{
						"valueof" : 						{
							"parameter_longname" : "paramDial[1]",
							"parameter_shortname" : "paramDial[1]",
							"parameter_type" : 3,
							"parameter_invisible" : 1
						}

					}
,
					"style" : "",
					"varname" : "paramDial[1]"
				}

			}
, 			{
				"box" : 				{
					"id" : "obj-2",
					"maxclass" : "dial",
					"numinlets" : 1,
					"numoutlets" : 1,
					"outlettype" : [ "float" ],
					"parameter_enable" : 1,
					"patching_rect" : [ 21.0, 66.0, 57.0, 57.0 ],
					"presentation" : 1,
					"presentation_rect" : [ 14.0, 14.0, 57.0, 57.0 ],
					"saved_attribute_attributes" : 					{
						"valueof" : 						{
							"parameter_longname" : "paramDial[0]",
							"parameter_shortname" : "paramDial[0]",
							"parameter_type" : 3,
							"parameter_invisible" : 1
						}

					}
,
					"style" : "",
					"varname" : "paramDial[0]"
				}

			}
 ],
		"lines" : [ 			{
				"patchline" : 				{
					"destination" : [ "obj-29", 6 ],
					"source" : [ "obj-10", 0 ]
				}

			}
, 			{
				"patchline" : 				{
					"destination" : [ "obj-29", 7 ],
					"source" : [ "obj-11", 0 ]
				}

			}
, 			{
				"patchline" : 				{
					"destination" : [ "obj-32", 0 ],
					"source" : [ "obj-12", 0 ]
				}

			}
, 			{
				"patchline" : 				{
					"destination" : [ "obj-125", 0 ],
					"source" : [ "obj-124", 0 ]
				}

			}
, 			{
				"patchline" : 				{
					"destination" : [ "obj-12", 0 ],
					"source" : [ "obj-125", 1 ]
				}

			}
, 			{
				"patchline" : 				{
					"destination" : [ "obj-4", 0 ],
					"source" : [ "obj-125", 0 ]
				}

			}
, 			{
				"patchline" : 				{
					"destination" : [ "obj-29", 0 ],
					"source" : [ "obj-2", 0 ]
				}

			}
, 			{
				"patchline" : 				{
					"destination" : [ "obj-30", 0 ],
					"source" : [ "obj-29", 0 ]
				}

			}
, 			{
				"patchline" : 				{
					"destination" : [ "obj-32", 0 ],
					"source" : [ "obj-4", 0 ]
				}

			}
, 			{
				"patchline" : 				{
					"destination" : [ "obj-29", 1 ],
					"source" : [ "obj-5", 0 ]
				}

			}
, 			{
				"patchline" : 				{
					"destination" : [ "obj-29", 8 ],
					"source" : [ "obj-57", 0 ]
				}

			}
, 			{
				"patchline" : 				{
					"destination" : [ "obj-29", 9 ],
					"source" : [ "obj-58", 0 ]
				}

			}
, 			{
				"patchline" : 				{
					"destination" : [ "obj-29", 10 ],
					"source" : [ "obj-59", 0 ]
				}

			}
, 			{
				"patchline" : 				{
					"destination" : [ "obj-29", 2 ],
					"source" : [ "obj-6", 0 ]
				}

			}
, 			{
				"patchline" : 				{
					"destination" : [ "obj-29", 11 ],
					"source" : [ "obj-60", 0 ]
				}

			}
, 			{
				"patchline" : 				{
					"destination" : [ "obj-29", 12 ],
					"source" : [ "obj-61", 0 ]
				}

			}
, 			{
				"patchline" : 				{
					"destination" : [ "obj-29", 13 ],
					"source" : [ "obj-62", 0 ]
				}

			}
, 			{
				"patchline" : 				{
					"destination" : [ "obj-29", 14 ],
					"source" : [ "obj-63", 0 ]
				}

			}
, 			{
				"patchline" : 				{
					"destination" : [ "obj-29", 15 ],
					"source" : [ "obj-64", 0 ]
				}

			}
, 			{
				"patchline" : 				{
					"destination" : [ "obj-29", 3 ],
					"source" : [ "obj-7", 0 ]
				}

			}
, 			{
				"patchline" : 				{
					"destination" : [ "obj-29", 4 ],
					"source" : [ "obj-8", 0 ]
				}

			}
, 			{
				"patchline" : 				{
					"destination" : [ "obj-29", 5 ],
					"source" : [ "obj-9", 0 ]
				}

			}
 ],
		"parameters" : 		{
			"obj-7" : [ "paramDial[3]", "paramDial[3]", 0 ],
			"obj-57" : [ "paramDial[9]", "paramDial[0]", 0 ],
			"obj-61" : [ "paramDial[10]", "paramDial[4]", 0 ],
			"obj-64" : [ "paramDial[11]", "paramDial[7]", 0 ],
			"obj-11" : [ "paramDial[7]", "paramDial[7]", 0 ],
			"obj-58" : [ "paramDial[14]", "paramDial[1]", 0 ],
			"obj-59" : [ "paramDial[15]", "paramDial[2]", 0 ],
			"obj-6" : [ "paramDial[2]", "paramDial[2]", 0 ],
			"obj-10" : [ "paramDial[6]", "paramDial[6]", 0 ],
			"obj-5" : [ "paramDial[1]", "paramDial[1]", 0 ],
			"obj-62" : [ "paramDial[17]", "paramDial[5]", 0 ],
			"obj-9" : [ "paramDial[5]", "paramDial[5]", 0 ],
			"obj-60" : [ "paramDial[16]", "paramDial[3]", 0 ],
			"obj-2" : [ "paramDial[0]", "paramDial[0]", 0 ],
			"obj-63" : [ "paramDial[18]", "paramDial[6]", 0 ],
			"obj-8" : [ "paramDial[4]", "paramDial[4]", 0 ]
		}
,
		"dependency_cache" : [  ],
		"autosave" : 0
	}

}
